<?xml version="1.0" encoding="UTF-8"?>
<svg version="1.1" xmlns="http://www.w3.org/2000/svg" width="512" height="512">
<path d="M0 0 C4.80164238 1.40446201 8.93227934 3.47950448 13.1875 6.0625 C14.17206177 6.65804687 14.17206177 6.65804687 15.17651367 7.265625 C21.22996696 11.00762562 26.65544535 15.30302175 32 20 C32.84046875 20.70769531 33.6809375 21.41539062 34.546875 22.14453125 C59.91960033 44.01077746 75.15346432 76.85163285 78 110 C80.23780036 148.18530635 68.92628212 183.81525429 44 213 C40.98147975 216.27825828 37.86046233 219.44335147 34.7109375 222.59545898 C33.82984818 223.48487183 32.94875885 224.37428467 32.04096985 225.29064941 C29.65383219 227.69755896 27.26236104 230.09996268 24.86788559 232.49956012 C23.36263665 234.00848732 21.85868515 235.51869614 20.35513306 237.02931404 C15.08243296 242.32640915 9.80412434 247.61784737 4.52099609 252.90454102 C-0.35945925 257.78862335 -5.2266395 262.68566495 -10.08790207 267.58884376 C-14.29840516 271.83433947 -18.51877485 276.06986535 -22.74646378 280.29824692 C-25.25513572 282.80770192 -27.75989744 285.32074416 -30.25445557 287.84423637 C-44.10328388 301.84380559 -58.15148442 315.17856805 -76.3125 323.375 C-77.61380859 323.97731445 -77.61380859 323.97731445 -78.94140625 324.59179688 C-97.28199021 332.82120629 -115.66282699 336.42616458 -135.75 336.3125 C-136.45476471 336.31001251 -137.15952942 336.30752502 -137.88565063 336.30496216 C-148.51263853 336.24701292 -158.70884914 335.90207046 -169 333 C-169.79841309 332.77957031 -170.59682617 332.55914062 -171.41943359 332.33203125 C-193.93180578 325.92052122 -212.99141012 315.08707185 -230 299 C-230.87398437 298.20207031 -231.74796875 297.40414063 -232.6484375 296.58203125 C-255.01040978 275.40543572 -269.53693073 244.02994154 -271.20361328 213.23828125 C-271.30295138 209.24079649 -271.33512449 205.24827353 -271.3125 201.25 C-271.31001251 200.54523529 -271.30752502 199.84047058 -271.30496216 199.11434937 C-271.24701292 188.48736147 -270.90207046 178.29115086 -268 168 C-267.77957031 167.20158691 -267.55914062 166.40317383 -267.33203125 165.58056641 C-264.52454369 155.72279428 -260.99667225 146.31035271 -256.3125 137.1875 C-255.96372803 136.49672363 -255.61495605 135.80594727 -255.25561523 135.09423828 C-246.21377668 118.36326196 -232.69129104 105.09447723 -219.33318281 91.82881236 C-216.78372244 89.29344529 -214.24468136 86.74767517 -211.70401001 84.20350647 C-207.44636142 79.94317727 -203.18080583 75.69089775 -198.91015625 71.44360352 C-193.99619535 66.55633311 -189.09488389 61.65664998 -184.20010984 56.75016874 C-179.45187624 51.99110841 -174.69513731 47.24063773 -169.9344368 42.49405098 C-167.9248287 40.49015091 -165.91810065 38.48343358 -163.91373825 36.47428703 C-161.11185005 33.66668241 -158.29752705 30.87174392 -155.48193359 28.07788086 C-154.66712021 27.25856583 -153.85230682 26.43925079 -153.01280212 25.59510803 C-139.24259438 12 -139.24259438 12 -135 12 C-135.0407666 12.75804932 -135.0815332 13.51609863 -135.12353516 14.29711914 C-136.23967061 36.13090171 -136.41012474 57.01058097 -130.58935547 78.265625 C-130.37037598 79.07773438 -130.15139648 79.88984375 -129.92578125 80.7265625 C-129.72380127 81.43377441 -129.52182129 82.14098633 -129.3137207 82.86962891 C-128.9029451 85.65906696 -129.14426785 87.28526614 -130 90 C-131.77010718 92.11907454 -133.50258637 93.97852317 -135.47851562 95.88500977 C-136.33487106 96.73501305 -136.33487106 96.73501305 -137.20852661 97.60218811 C-138.44870481 98.83050444 -139.69352388 100.05414877 -140.94239807 101.27362251 C-142.92845168 103.21308712 -144.90203175 105.16450813 -146.8729248 107.11936951 C-151.07084458 111.27840938 -155.28495339 115.42083061 -159.5 119.5625 C-164.35983738 124.34157721 -169.21272218 129.12748916 -174.05412292 133.92524529 C-175.98225553 135.83049329 -177.9197225 137.72585792 -179.85803223 139.6207428 C-196.70148219 156.20884144 -208.60153826 174.18431134 -210 198.51171875 C-210 219.53148559 -202.52220002 238.68567998 -188 254 C-173.50033227 267.92567056 -154.02496476 275.19892349 -134 275 C-102.69131123 272.90199508 -83.94793718 254.26886142 -62.94921875 233.25 C-61.23840004 231.54307833 -59.52736173 229.83637672 -57.81611633 228.12988281 C-54.25186233 224.57304225 -50.69144403 221.01241563 -47.13354492 217.44921875 C-42.59538743 212.90525186 -38.04592394 208.37279392 -33.49330425 203.84332275 C-29.96455488 200.32936329 -26.44281851 196.80843925 -22.92301369 193.28552246 C-21.2489788 191.61199744 -19.57261039 189.94080299 -17.89377403 188.27209473 C0.97989224 169.49844128 16.16743401 150.22314786 16.5 122.5 C16.23225632 101.87751004 8.05769589 84.00830262 -5.8828125 68.96875 C-15.22321363 58.7792215 -18.51635277 47.93755173 -18.24609375 34.265625 C-17.17914112 20.107333 -10.3676849 9.33091641 0 0 Z " fill="#000000" transform="translate(271,176)"/>
<path d="M0 0 C0.79841309 0.22042969 1.59682617 0.44085938 2.41943359 0.66796875 C24.92002052 7.07612234 44.01163636 17.90300112 61 34 C61.8971875 34.83273438 62.794375 35.66546875 63.71875 36.5234375 C81.34357309 53.40564164 93.04516322 75.43796065 99 99 C99.33773438 100.26714844 99.67546875 101.53429687 100.0234375 102.83984375 C104.26171233 121.98984699 104.3322622 146.0910467 99 165 C98.77957031 165.79841309 98.55914062 166.59682617 98.33203125 167.41943359 C95.52454369 177.27720572 91.99667225 186.68964729 87.3125 195.8125 C86.96372803 196.50327637 86.61495605 197.19405273 86.25561523 197.90576172 C77.21377668 214.63673804 63.69129104 227.90552277 50.33318281 241.17118764 C47.78372244 243.70655471 45.24468136 246.25232483 42.70401001 248.79649353 C38.44636142 253.05682273 34.18080583 257.30910225 29.91015625 261.55639648 C24.99619535 266.44366689 20.09488389 271.34335002 15.20010984 276.24983126 C10.45187624 281.00889159 5.69513731 285.75936227 0.9344368 290.50594902 C-1.0751713 292.50984909 -3.08189935 294.51656642 -5.08626175 296.52571297 C-7.88814995 299.33331759 -10.70247295 302.12825608 -13.51806641 304.92211914 C-14.33287979 305.74143417 -15.14769318 306.56074921 -15.98719788 307.40489197 C-29.75740562 321 -29.75740562 321 -34 321 C-33.9278125 319.88625 -33.855625 318.7725 -33.78125 317.625 C-32.4225239 295.77195409 -32.73254988 275.12307759 -38.41088867 253.8527832 C-38.6297876 253.01577881 -38.84868652 252.17877441 -39.07421875 251.31640625 C-39.27619873 250.57849854 -39.47817871 249.84059082 -39.6862793 249.08032227 C-40.07102873 246.52899938 -39.93850545 245.42863808 -39 243 C-37.22529195 240.96671785 -35.45134127 239.10331961 -33.52148438 237.22851562 C-32.95058075 236.6619928 -32.37967712 236.09546997 -31.79147339 235.51177979 C-30.55015527 234.281877 -29.30538356 233.05545236 -28.05760193 231.83210754 C-26.07361251 229.88650211 -24.09922682 227.93159825 -22.1270752 225.97399902 C-17.21977154 221.10677031 -12.29661481 216.25567934 -7.37341309 211.40454102 C-3.22386766 207.31464096 0.91917845 203.2183561 5.05412292 199.11369324 C6.98260982 197.20440593 8.92003087 195.30452861 10.85803223 193.40490723 C27.68361233 176.78942615 39.60090344 158.8267318 41 134.48828125 C41 113.46851441 33.52220002 94.31432002 19 79 C4.50033227 65.07432944 -14.97503524 57.80107651 -35 58 C-65.50102383 60.04388304 -83.782417 77.46260119 -104.29296875 97.9921875 C-106.05148526 99.74680931 -107.81022231 101.50121012 -109.56916809 103.25540161 C-113.23953831 106.91834471 -116.90605519 110.58509298 -120.57006836 114.25439453 C-125.24504905 118.93517582 -129.93131572 123.60447354 -134.62076855 128.27075005 C-138.25074666 131.88593786 -141.87371194 135.50809144 -145.49474525 139.13223648 C-147.21901981 140.85600084 -148.94563084 142.57743156 -150.6747036 144.2963829 C-169.48461728 163.00961887 -185.18975741 182.33710474 -185.4375 210.125 C-184.80243666 230.93868867 -177.61306557 247.88583069 -163.375 262.9375 C-153.95413177 273.15564378 -150.33840143 285.1565125 -150.69140625 298.859375 C-151.48466858 313.09201529 -158.78747619 323.62558605 -169 333 C-192.46791188 323.91295774 -212.72047699 305.13300436 -226 284 C-226.38881348 283.38576172 -226.77762695 282.77152344 -227.17822266 282.13867188 C-238.63104171 263.73488352 -246.2351607 241.79792013 -247 220 C-247.0515625 218.72640625 -247.103125 217.4528125 -247.15625 216.140625 C-247.6312555 198.58907337 -245.15457244 181.45829485 -239 165 C-238.74202637 164.30422852 -238.48405273 163.60845703 -238.21826172 162.89160156 C-228.72890259 137.7115786 -213.33289499 119.85231465 -194.46576786 101.02985978 C-192.42056851 98.98778956 -190.38003556 96.94108629 -188.33940196 94.89445513 C-183.51755486 90.0586494 -178.68807159 85.23056846 -173.85351562 80.4074707 C-168.90210828 75.46754103 -163.96361856 70.514965 -159.03136182 65.55592042 C-154.7614395 61.2636968 -150.48363916 56.97943544 -146.19963336 52.70126837 C-143.65634095 50.16131188 -141.11588 47.61869769 -138.58298492 45.06836891 C-125.39318629 31.79641545 -112.5894101 19.88193705 -95.8125 11.25 C-94.92594727 10.79173828 -94.03939453 10.33347656 -93.12597656 9.86132812 C-84.36928934 5.47208924 -75.48084802 2.39609576 -66 0 C-64.73285156 -0.33773438 -63.46570313 -0.67546875 -62.16015625 -1.0234375 C-43.01015301 -5.26171233 -18.9089533 -5.3322622 0 0 Z " fill="#000000" transform="translate(410,3)"/>
<path d="M0 0 C4.76595629 4.6341787 6.00918516 11.37173076 7.63085938 17.60351562 C8.27892271 20.04653041 8.98607134 22.46702148 9.703125 24.890625 C10.1787934 26.55159456 10.65278473 28.21304542 11.125 29.875 C11.35268066 30.64287842 11.58036133 31.41075684 11.81494141 32.2019043 C13.65329294 38.96905297 13.73952478 44.95845044 10.5625 51.3125 C7.3521885 54.95663738 4.71785597 56.61193594 -0.1484375 57.25390625 C-5.85335366 57.5194504 -9.37093263 56.89951333 -13.75 52.9375 C-16.85874114 48.77382049 -18.55118551 45.07706862 -19.890625 40.0703125 C-20.06253357 39.43189423 -20.23444214 38.79347595 -20.41156006 38.13571167 C-20.76974906 36.79423343 -21.12240549 35.45126663 -21.46972656 34.10693359 C-21.99788941 32.07063722 -22.54834401 30.04133294 -23.1015625 28.01171875 C-27.14178864 12.88090115 -27.14178864 12.88090115 -24.625 5.75 C-22.12402736 1.99854104 -19.24615249 -1.23044917 -14.828125 -2.703125 C-9.61449641 -3.60472994 -4.42798476 -3.0230443 0 0 Z " fill="#000000" transform="translate(320.75,446.0625)"/>
<path d="M0 0 C1.292254 0.33032746 2.58457141 0.66040694 3.87695312 0.99023438 C11.13420957 2.96194613 16.15227202 4.7564803 21.3125 10.3125 C23.8903475 15.14596407 23.86164243 20.12467419 22.3125 25.3125 C20.12848987 28.96173211 17.56896377 31.55200877 13.9375 33.75 C5.67206106 35.52116549 -1.80941762 33.28650043 -9.77880859 31.11425781 C-11.81092969 30.56292604 -13.8480921 30.03451085 -15.88671875 29.5078125 C-17.19828093 29.1576114 -18.50949224 28.80609302 -19.8203125 28.453125 C-20.99480957 28.13891602 -22.16930664 27.82470703 -23.37939453 27.50097656 C-29.50824108 25.29911494 -33.83736343 22.23201441 -36.6875 16.3125 C-37.59069712 10.73664023 -37.29571613 5.54822449 -34.0703125 0.7890625 C-24.93669016 -8.96378847 -11.02580197 -3.01009439 0 0 Z " fill="#000000" transform="translate(45.6875,182.6875)"/>
<path d="M0 0 C3.59179943 2.10136058 6.40237407 4.62397373 9.34692383 7.578125 C9.84278488 8.07348755 10.33864594 8.5688501 10.84953308 9.07922363 C11.88572867 10.11774044 12.91828104 11.15990433 13.94726562 12.20556641 C15.51962346 13.80167735 17.10505393 15.38388051 18.69262695 16.96484375 C28.97418852 27.30310491 28.97418852 27.30310491 29.07739258 34.671875 C28.98413273 39.66793838 28.12693206 42.49183113 24.70239258 46.296875 C21.18079931 49.39160848 18.04423687 50.45664177 13.38989258 50.609375 C12.28194336 50.66544922 12.28194336 50.66544922 11.15161133 50.72265625 C5.32039734 49.70893643 0.98205089 44.88487389 -3.06323242 40.83203125 C-3.58270447 40.31684433 -4.10217651 39.80165741 -4.63739014 39.27085876 C-5.7255533 38.18840046 -6.81115725 37.10336385 -7.89428711 36.01586914 C-9.54834152 34.35863949 -11.21533059 32.71522627 -12.88354492 31.07226562 C-13.94425065 30.01383184 -15.00417411 28.95461342 -16.06323242 27.89453125 C-16.55905823 27.40791519 -17.05488403 26.92129913 -17.56573486 26.41993713 C-21.41461935 22.51904638 -23.05928837 19.40202661 -23.67260742 13.984375 C-23.14522159 8.79841427 -21.69584225 4.51493156 -17.78979492 0.90234375 C-12.06888938 -2.86281036 -6.02226078 -3.11033473 0 0 Z " fill="#000000" transform="translate(412.297607421875,390.703125)"/>
<path d="M0 0 C0.93328125 -0.03738281 1.8665625 -0.07476562 2.828125 -0.11328125 C10.55442029 1.01260937 16.15655361 8.37995627 21.43725586 13.68408203 C22.93548817 15.18548391 24.44659373 16.67303345 25.95898438 18.16015625 C26.92528937 19.12418857 27.89081132 20.08900655 28.85546875 21.0546875 C30.15713989 22.35188721 30.15713989 22.35188721 31.48510742 23.67529297 C35.6394635 28.51256303 37.35414432 32.79053101 37.08984375 39.0703125 C36.52323304 42.80864062 35.32408021 45.52932084 32.75 48.3125 C28.04905049 51.75918315 23.59584681 53.07029496 17.75 52.3125 C12.86074221 50.28568806 9.4289703 47.42095702 5.765625 43.69140625 C5.22395691 43.15023666 4.68228882 42.60906708 4.12420654 42.05149841 C2.98788205 40.91284581 1.85521857 39.77052902 0.72607422 38.62475586 C-1.00003559 36.87496392 -2.73917566 35.13896628 -4.48046875 33.40429688 C-5.58673313 32.29245774 -6.69222898 31.17985329 -7.796875 30.06640625 C-8.31457458 29.54961807 -8.83227417 29.0328299 -9.36566162 28.50038147 C-13.27288068 24.51573301 -15.53281712 21.57724682 -15.5625 15.9375 C-15.45157738 11.71550759 -14.6512176 8.8729261 -12.25 5.3125 C-8.08838627 1.55689736 -5.56167876 0.14436051 0 0 Z " fill="#000000" transform="translate(86.25,70.6875)"/>
<path d="M0 0 C2.01387938 0.55342502 4.03333622 1.08105052 6.0546875 1.60644531 C7.35717823 1.95649545 8.6592771 2.30800762 9.9609375 2.66113281 C11.70358887 3.13244629 11.70358887 3.13244629 13.48144531 3.61328125 C18.03061921 5.26345849 21.62015544 7.33699429 24.60546875 11.18066406 C26.69349931 15.93004884 26.37702207 20.72423933 25.7578125 25.80175781 C23.56844808 30.42374936 21.25292523 32.5073179 16.7578125 34.80175781 C7.55873878 36.31037122 -1.35179448 33.58958207 -10.1171875 31.05175781 C-11.40853904 30.69903956 -12.70020532 30.34747154 -13.9921875 29.99707031 C-27.66100595 26.14468933 -27.66100595 26.14468933 -32.08203125 20.41894531 C-34.1995366 15.64208139 -34.08549697 10.9020935 -33.2421875 5.80175781 C-26.09878068 -7.60657862 -12.07014593 -3.33112361 0 0 Z " fill="#000000" transform="translate(477.2421875,298.1982421875)"/>
<path d="M0 0 C4.6678155 2.2110705 6.61900718 4.52288245 9 9 C10.41367585 13.1594755 11.52145119 17.39952439 12.64428711 21.64526367 C13.18237325 23.66822573 13.74170446 25.68447014 14.30273438 27.70117188 C18.97282218 44.90260009 18.97282218 44.90260009 15.375 52.375 C12.02561758 56.07694899 9.48604424 58.63691157 4.37890625 59.3828125 C-0.09785904 59.56504175 -3.30259875 59.30432054 -7.4375 57.5 C-13.8933275 51.20163171 -15.63486775 42.11459243 -17.82958984 33.64624023 C-18.37447343 31.56451175 -18.95019449 29.49290277 -19.52734375 27.41992188 C-21.51274725 20.01184312 -22.72395973 14.3307698 -20 7 C-14.08359635 -0.13002491 -8.90590808 -0.95420444 0 0 Z " fill="#000000" transform="translate(200,9)"/>
</svg>
